<?xml version="1.0" encoding="UTF-8" standalone="no"?>
<!-- Created with Inkscape (http://www.inkscape.org/) -->

<svg
   id="svg5"
   width="500"
   height="217.82173"
   version="1.1"
   viewBox="0 0 132.29136 57.632"
   sodipodi:docname="racksdb_interfaces_v2.svg"
   inkscape:version="1.1.2 (0a00cf5339, 2022-02-04)"
   xmlns:inkscape="http://www.inkscape.org/namespaces/inkscape"
   xmlns:sodipodi="http://sodipodi.sourceforge.net/DTD/sodipodi-0.dtd"
   xmlns:xlink="http://www.w3.org/1999/xlink"
   xmlns="http://www.w3.org/2000/svg"
   xmlns:svg="http://www.w3.org/2000/svg">
  <sodipodi:namedview
     id="namedview103"
     pagecolor="#ffffff"
     bordercolor="#666666"
     borderopacity="1.0"
     inkscape:pageshadow="2"
     inkscape:pageopacity="0.0"
     inkscape:pagecheckerboard="0"
     inkscape:document-units="mm"
     showgrid="true"
     units="px"
     width="342.17197px"
     inkscape:zoom="1.2202041"
     inkscape:cx="124.97909"
     inkscape:cy="198.73724"
     inkscape:window-width="1850"
     inkscape:window-height="1016"
     inkscape:window-x="0"
     inkscape:window-y="0"
     inkscape:window-maximized="1"
     inkscape:current-layer="svg5" />
  <defs
     id="defs2">
    <linearGradient
       id="linearGradient814640"
       x1="40.893002"
       x2="51.208"
       y1="115.41"
       y2="115.76"
       gradientTransform="matrix(0.88076,0,0,0.88076,72.80332,-96.281167)"
       gradientUnits="userSpaceOnUse"
       xlink:href="#linearGradient707963" />
    <linearGradient
       id="linearGradient707963">
      <stop
         id="stop707959"
         stop-color="#9a3af6"
         offset="0" />
      <stop
         id="stop707961"
         stop-color="#6129ef"
         offset="1" />
    </linearGradient>
    <linearGradient
       id="linearGradient831980"
       x1="56.292"
       x2="56.292"
       y1="112.5"
       y2="95.5"
       gradientUnits="userSpaceOnUse"
       xlink:href="#linearGradient829828"
       gradientTransform="translate(40.359756)" />
    <linearGradient
       id="linearGradient829828">
      <stop
         id="stop829824"
         stop-color="#dfdfdf"
         offset="0" />
      <stop
         id="stop829826"
         stop-color="#dfdfdf"
         stop-opacity="0"
         offset="1" />
    </linearGradient>
    <linearGradient
       id="linearGradient831998"
       x1="56.292"
       x2="56.292"
       y1="110.5"
       y2="93.5"
       gradientUnits="userSpaceOnUse"
       xlink:href="#linearGradient829828"
       gradientTransform="translate(-40.359756)" />
    <filter
       id="filter719603"
       x="-0.081110614"
       y="-0.16155901"
       width="1.1622212"
       height="1.323118"
       color-interpolation-filters="sRGB">
      <feGaussianBlur
         id="feGaussianBlur719605"
         stdDeviation="0.62002308" />
    </filter>
    <linearGradient
       id="linearGradient832000"
       x1="47.259998"
       x2="65.606003"
       y1="115.49"
       y2="115.49"
       gradientUnits="userSpaceOnUse"
       gradientTransform="translate(-24.436762)">
      <stop
         id="stop719029"
         stop-color="#5c2ef0"
         offset="0" />
      <stop
         id="stop719031"
         stop-color="#231b8f"
         offset="1" />
    </linearGradient>
    <linearGradient
       id="linearGradient832002"
       x1="47.259998"
       x2="65.606003"
       y1="104.49"
       y2="104.49"
       gradientUnits="userSpaceOnUse"
       xlink:href="#linearGradient707963"
       gradientTransform="translate(-24.436762)" />
    <linearGradient
       id="linearGradient832004"
       x1="47.259998"
       x2="65.606003"
       y1="93.748001"
       y2="93.748001"
       gradientUnits="userSpaceOnUse"
       gradientTransform="translate(-24.436762)">
      <stop
         id="stop692943"
         stop-color="#eb49fe"
         offset="0" />
      <stop
         id="stop692945"
         stop-color="#9a3af6"
         offset="1" />
    </linearGradient>
    <linearGradient
       inkscape:collect="always"
       xlink:href="#linearGradient829828"
       id="linearGradient137"
       gradientUnits="userSpaceOnUse"
       x1="56.292"
       y1="112.5"
       x2="56.292"
       y2="95.5"
       gradientTransform="translate(40.359756)" />
    <linearGradient
       inkscape:collect="always"
       xlink:href="#linearGradient829828"
       id="linearGradient139"
       gradientUnits="userSpaceOnUse"
       x1="56.292"
       y1="112.5"
       x2="56.292"
       y2="95.5"
       gradientTransform="translate(40.359756)" />
    <linearGradient
       inkscape:collect="always"
       xlink:href="#linearGradient829828"
       id="linearGradient141"
       gradientUnits="userSpaceOnUse"
       x1="56.292"
       y1="112.5"
       x2="56.292"
       y2="95.5"
       gradientTransform="translate(40.359756)" />
    <linearGradient
       inkscape:collect="always"
       xlink:href="#linearGradient829828"
       id="linearGradient143"
       gradientUnits="userSpaceOnUse"
       x1="56.292"
       y1="112.5"
       x2="56.292"
       y2="95.5"
       gradientTransform="translate(40.359756)" />
    <linearGradient
       inkscape:collect="always"
       xlink:href="#linearGradient829828"
       id="linearGradient145"
       gradientUnits="userSpaceOnUse"
       x1="56.292"
       y1="112.5"
       x2="56.292"
       y2="95.5"
       gradientTransform="translate(40.359756)" />
    <linearGradient
       inkscape:collect="always"
       xlink:href="#linearGradient829828"
       id="linearGradient147"
       gradientUnits="userSpaceOnUse"
       x1="56.292"
       y1="112.5"
       x2="56.292"
       y2="95.5"
       gradientTransform="translate(40.359756)" />
    <linearGradient
       inkscape:collect="always"
       xlink:href="#linearGradient829828"
       id="linearGradient149"
       gradientUnits="userSpaceOnUse"
       x1="56.292"
       y1="112.5"
       x2="56.292"
       y2="95.5"
       gradientTransform="translate(40.359756)" />
    <linearGradient
       inkscape:collect="always"
       xlink:href="#linearGradient829828"
       id="linearGradient151"
       gradientUnits="userSpaceOnUse"
       x1="56.292"
       y1="112.5"
       x2="56.292"
       y2="95.5"
       gradientTransform="translate(40.359756)" />
    <linearGradient
       inkscape:collect="always"
       xlink:href="#linearGradient829828"
       id="linearGradient153"
       gradientUnits="userSpaceOnUse"
       x1="56.292"
       y1="110.5"
       x2="56.292"
       y2="93.5"
       gradientTransform="translate(-40.359756)" />
    <linearGradient
       inkscape:collect="always"
       xlink:href="#linearGradient829828"
       id="linearGradient155"
       gradientUnits="userSpaceOnUse"
       x1="56.292"
       y1="110.5"
       x2="56.292"
       y2="93.5"
       gradientTransform="translate(-40.359756)" />
    <linearGradient
       inkscape:collect="always"
       xlink:href="#linearGradient829828"
       id="linearGradient157"
       gradientUnits="userSpaceOnUse"
       x1="56.292"
       y1="110.5"
       x2="56.292"
       y2="93.5"
       gradientTransform="translate(-40.359756)" />
    <linearGradient
       inkscape:collect="always"
       xlink:href="#linearGradient829828"
       id="linearGradient159"
       gradientUnits="userSpaceOnUse"
       x1="56.292"
       y1="110.5"
       x2="56.292"
       y2="93.5"
       gradientTransform="translate(-40.359756)" />
    <linearGradient
       inkscape:collect="always"
       xlink:href="#linearGradient829828"
       id="linearGradient161"
       gradientUnits="userSpaceOnUse"
       x1="56.292"
       y1="110.5"
       x2="56.292"
       y2="93.5"
       gradientTransform="translate(-40.359756)" />
    <linearGradient
       inkscape:collect="always"
       xlink:href="#linearGradient829828"
       id="linearGradient163"
       gradientUnits="userSpaceOnUse"
       x1="56.292"
       y1="110.5"
       x2="56.292"
       y2="93.5"
       gradientTransform="translate(-40.359756)" />
    <linearGradient
       inkscape:collect="always"
       xlink:href="#linearGradient829828"
       id="linearGradient165"
       gradientUnits="userSpaceOnUse"
       x1="56.292"
       y1="110.5"
       x2="56.292"
       y2="93.5"
       gradientTransform="translate(-40.359756)" />
    <linearGradient
       inkscape:collect="always"
       xlink:href="#linearGradient829828"
       id="linearGradient167"
       gradientUnits="userSpaceOnUse"
       x1="56.292"
       y1="110.5"
       x2="56.292"
       y2="93.5"
       gradientTransform="translate(-40.359756)" />
  </defs>
  <path
     id="path68479"
     d="m 95.762722,50.056163 -10.880138,-16.201516 1.481705,-0.240948 -6.537522,-2.392865 -2.352925,3.838459 1.481706,-0.240948 10.880139,16.201516 z"
     fill="#e1c5ea"
     style="stroke-width:0.999999" />
  <path
     id="path68479-7"
     d="M 42.135314,50.05617 53.015446,33.854649 51.533741,33.613701 58.071262,31.220834 60.424188,35.059292 58.942482,34.818344 48.06235,51.019865 Z"
     fill="#e1c5ea"
     style="stroke-width:0.999999" />
  <path
     id="path28192-6"
     d="m 103.49743,22.937981 -11.132611,0.0288 -0.04783,-0.804163 -6.623022,2.971413 6.957874,2.657586 -0.04783,-0.804116 11.132609,-0.02879 -0.23918,-4.020674"
     fill="#e1c5ea"
     style="stroke-width:0.999998"
     sodipodi:nodetypes="cccccccc" />
  <path
     id="path28192-6-5"
     d="m 29.25838,22.937981 11.132593,0.0288 0.04783,-0.804163 6.318964,2.861842 -6.653816,2.767157 0.04783,-0.804116 -11.132588,-0.02879 0.239177,-4.020674"
     fill="#e1c5ea"
     style="stroke-width:0.999998"
     sodipodi:nodetypes="cccccccc" />
  <rect
     id="rect27578"
     x="76.368843"
     y="42.398998"
     width="26.334999"
     height="15.234"
     rx="1.5393"
     ry="1.5393"
     fill="#716388"
     stroke-linecap="round"
     stroke-linejoin="round"
     stroke-width="2.3328" />
  <rect
     id="rect1588"
     x="34.744835"
     y="42.398998"
     width="26.334999"
     height="15.234"
     rx="1.5393"
     ry="1.5393"
     fill="#716388"
     stroke-linecap="round"
     stroke-linejoin="round"
     stroke-width="2.3328" />
  <g
     id="g40988"
     transform="translate(-58.81632,-2.9691333)"
     font-family="sans-serif"
     font-size="6.35px"
     stroke-width="0.15572">
    <text
       id="text104277-6-1"
       x="129.33087"
       y="8.1961222"
       fill="url(#linearGradient814640)"
       style="line-height:1.25;fill:url(#linearGradient814640)"
       xml:space="preserve"><tspan
         id="tspan104275-3-0"
         x="129.33087"
         y="8.1961222"
         fill="url(#linearGradient814640)"
         font-family="Raleway"
         font-size="6.35px"
         font-weight="500"
         stroke-width="0.15572"
         style="fill:url(#linearGradient814640)">DB</tspan></text>
    <text
       id="text822693"
       x="111.97265"
       y="8.1338387"
       fill="#333333"
       style="line-height:1.25"
       xml:space="preserve"><tspan
         id="tspan822691"
         x="111.97265"
         y="8.1338387"
         fill="#333333"
         font-family="Raleway"
         font-size="6.35px"
         font-weight="300"
         stroke-width="0.15572">Racks</tspan></text>
  </g>
  <g
     id="g974036"
     transform="matrix(0.52445,0,0,0.52445,5.4386708,3.8647)">
    <path
       id="path831840"
       d="m 85.737,37.5 31.177,18 31.177,-18 -31.177,-18 z"
       fill="#f6f6f6" />
    <g
       id="g831858"
       transform="matrix(-1,0,0,1,173.21,-59)"
       fill="none"
       stroke="url(#linearGradient831980)"
       stroke-width="0.26458px"
       style="stroke:url(#linearGradient831980)">
      <path
         id="path831842"
         d="m 52.828,112.5 31.177,-18"
         style="stroke:url(#linearGradient137)" />
      <path
         id="path831844"
         d="M 49.363,110.5 80.54,92.5"
         style="stroke:url(#linearGradient139)" />
      <path
         id="path831846"
         d="m 45.899,108.5 31.177,-18"
         style="stroke:url(#linearGradient141)" />
      <path
         id="path831848"
         d="m 42.435,106.5 31.177,-18"
         style="stroke:url(#linearGradient143)" />
      <path
         id="path831850"
         d="m 38.971,104.5 31.177,-18"
         style="stroke:url(#linearGradient145)" />
      <path
         id="path831852"
         d="m 35.507,102.5 31.177,-18"
         style="stroke:url(#linearGradient147)" />
      <path
         id="path831854"
         d="M 32.043,100.5 63.22,82.5"
         style="stroke:url(#linearGradient149)" />
      <path
         id="path831856"
         d="m 28.579,98.5 31.177,-18"
         style="stroke:url(#linearGradient151)" />
    </g>
    <g
       id="g831876"
       transform="translate(60.622,-59)"
       fill="none"
       stroke="url(#linearGradient831998)"
       stroke-width="0.26458px"
       style="stroke:url(#linearGradient831998)">
      <path
         id="path831860"
         d="m 52.828,112.5 31.177,-18"
         style="stroke:url(#linearGradient153)" />
      <path
         id="path831862"
         d="M 49.363,110.5 80.54,92.5"
         style="stroke:url(#linearGradient155)" />
      <path
         id="path831864"
         d="m 45.899,108.5 31.177,-18"
         style="stroke:url(#linearGradient157)" />
      <path
         id="path831866"
         d="m 42.435,106.5 31.177,-18"
         style="stroke:url(#linearGradient159)" />
      <path
         id="path831868"
         d="m 38.971,104.5 31.177,-18"
         style="stroke:url(#linearGradient161)" />
      <path
         id="path831870"
         d="m 35.507,102.5 31.177,-18"
         style="stroke:url(#linearGradient163)" />
      <path
         id="path831872"
         d="M 32.043,100.5 63.22,82.5"
         style="stroke:url(#linearGradient165)" />
      <path
         id="path831874"
         d="m 28.579,98.5 31.177,-18"
         style="stroke:url(#linearGradient167)" />
    </g>
    <path
       id="path831878"
       d="m 125.57,33.5 -3.4641,-2 v -9 l 3.4641,2 z"
       fill="#262626"
       stroke="#262626"
       stroke-width="0.05" />
    <path
       id="path831880"
       d="m 125.57,33.5 v -9 l 5.1962,-3 v 9 l -5.1962,3"
       fill="#444444"
       stroke="#444444"
       stroke-linejoin="round"
       stroke-width="0.05" />
    <path
       id="path831882"
       d="m 125.57,24.5 -3.4641,-2 5.1962,-3 3.4641,2 z"
       fill="#3c3c3c"
       stroke="#3c3c3c"
       stroke-linejoin="round"
       stroke-width="0.05" />
    <path
       id="path831884"
       d="m 131.64,37 -3.4641,-2 v -9 l 3.4641,2 z"
       fill="#262626"
       stroke="#262626"
       stroke-width="0.05" />
    <path
       id="path831886"
       d="m 131.64,37 v -9 l 5.1962,-3 v 9 l -5.1962,3"
       fill="#444444"
       stroke="#444444"
       stroke-linejoin="round"
       stroke-width="0.05" />
    <path
       id="path831888"
       d="m 131.64,28 -3.4641,-2 5.1962,-3 3.4641,2 z"
       fill="#3c3c3c"
       stroke="#3c3c3c"
       stroke-linejoin="round"
       stroke-width="0.05" />
    <path
       id="path831890"
       d="m 108.25,33.5 3.4641,-2 v -9 l -3.4641,2 z"
       fill="#262626"
       stroke="#262626"
       stroke-width="0.05" />
    <path
       id="path831892"
       d="m 108.25,33.5 v -9 l -5.1962,-3 v 9 l 5.1962,3"
       fill="#444444"
       stroke="#444444"
       stroke-linejoin="round"
       stroke-width="0.05" />
    <path
       id="path831894"
       d="m 108.25,24.5 3.4641,-2 -5.1962,-3 -3.4641,2 z"
       fill="#3c3c3c"
       stroke="#3c3c3c"
       stroke-linejoin="round"
       stroke-width="0.05" />
    <path
       id="path831896"
       d="m 102.19,37 3.4641,-2 v -9 l -3.4641,2 z"
       fill="#262626"
       stroke="#262626"
       stroke-width="0.05" />
    <path
       id="path831898"
       d="m 102.19,37 v -9 l -5.1962,-3 v 9 l 5.1962,3"
       fill="#444444"
       stroke="#444444"
       stroke-linejoin="round"
       stroke-width="0.05" />
    <path
       id="path831900"
       d="m 102.19,28 3.4641,-2 -5.1962,-3 -3.4641,2 z"
       fill="#3c3c3c"
       stroke="#3c3c3c"
       stroke-linejoin="round"
       stroke-width="0.05" />
    <path
       id="path831902"
       d="m 125.57,33.5 -3.4641,-2 v -9 l 3.4641,2 z"
       fill="#262626" />
    <path
       id="path831904"
       d="m 108.25,33.5 3.4641,-2 v -9 l -3.4641,2 z"
       fill="#262626" />
    <path
       id="path831906"
       d="m 96.995,40 1.732,1 h 1.7321 v -1 l -1.732,-1 -1.732,1"
       fill="#a2a2a2" />
    <path
       id="path831908"
       d="m 101.32,40.5 v 1 h -1.732 l 4.3301,2.5 h 6.9282 v -2 h -6.9282 z"
       fill="#a2a2a2" />
    <path
       id="path831910"
       d="m 103.06,36.5 2.5981,1.5 h 1.732 v -1 l -2.5981,-1.5 -1.732,1"
       fill="#a2a2a2" />
    <path
       id="path831912"
       d="m 108.25,37.5 v 1 h -1.732 l 3.4641,2 1.732,-1 z"
       fill="#a2a2a2" />
    <path
       id="path831914"
       d="m 136.83,40 -1.732,1 h -1.732 v -1 l 1.732,-1 1.732,1"
       fill="#a2a2a2" />
    <path
       id="path831916"
       d="m 132.5,40.5 v 1 h 1.732 l -4.3301,2.5 h -6.9282 v -2 h 6.9282 z"
       fill="#a2a2a2" />
    <path
       id="path831918"
       d="m 130.77,36.5 -3.1219,1.8024 h -2.0813 v -1.2016 l 3.1219,-1.8024 2.0813,1.2016"
       fill="#a2a2a2" />
    <path
       id="path831944"
       d="m 96.129,40.5 3.4641,-2 v -9 l -3.4641,2 z"
       fill="#262626"
       stroke="#262626"
       stroke-width="0.05" />
    <path
       id="path831946"
       d="m 96.129,40.5 v -9 l -5.1962,-3 v 9 l 5.1962,3"
       fill="#444444"
       stroke="#444444"
       stroke-linejoin="round"
       stroke-width="0.05" />
    <path
       id="path831948"
       d="m 96.129,31.5 3.4641,-2 -5.1962,-3 -3.4641,2 z"
       fill="#3c3c3c"
       stroke="#3c3c3c"
       stroke-linejoin="round"
       stroke-width="0.05" />
    <path
       id="path831950"
       d="m 137.7,40.5 -3.4641,-2 v -9 l 3.4641,2 z"
       fill="#262626"
       stroke="#262626"
       stroke-width="0.05" />
    <path
       id="path831952"
       d="m 137.7,40.5 v -9 l 5.1962,-3 v 9 l -5.1962,3"
       fill="#444444"
       stroke="#444444"
       stroke-linejoin="round"
       stroke-width="0.05" />
    <path
       id="path831954"
       d="m 137.7,31.5 -3.4641,-2 5.1962,-3 3.4641,2 z"
       fill="#3c3c3c"
       stroke="#3c3c3c"
       stroke-linejoin="round"
       stroke-width="0.05" />
    <path
       id="path831958"
       d="m 85.737,37.5 v 2 l 31.177,18 v -2 l -31.177,-18"
       fill="#c9c9c9" />
    <path
       id="path831960"
       d="m 116.91,57.5 v -2 l 31.177,-18 v 2 l -31.177,18"
       fill="#999999" />
    <g
       id="g832118"
       transform="matrix(1.3745,0,0,1.5849,-63.501,-63.79)">
      <g
         id="g831926"
         transform="matrix(1.2016,0,0,1.2016,63.588,-72.154)">
        <ellipse
           id="ellipse831920"
           cx="56.411999"
           cy="115.7"
           rx="9.1730003"
           ry="4.6052999"
           fill="#808080"
           filter="url(#filter719603)"
           opacity="0.6" />
        <path
           id="path831922"
           d="m 47.26,111.45 v 3.6256 c 0.1717,2.4766 4.2162,4.4409 9.1521,4.4451 5.0662,-5e-5 9.1731,-2.062 9.1728,-4.6055 -2.67e-4,-0.0172 -9.21e-4,-0.0344 -0.0014,-0.0516 h 0.02238 v -3.3617 c -0.01547,2.5377 -4.1173,3.3993 -9.1721,3.3996 -5.0661,1e-5 -9.173,-0.8702 -9.1731,-3.4136 0.0014,-0.0126 0.0018,-0.0252 0.0028,-0.0379 z"
           fill="url(#linearGradient832000)"
           style="fill:url(#linearGradient832000)" />
        <ellipse
           id="ellipse831924"
           cx="56.411999"
           cy="111.49"
           rx="9.1730003"
           ry="4.6052999"
           fill="#5229ef" />
      </g>
      <g
         id="g831934"
         transform="matrix(1.2016,0,0,1.2016,63.588,-65.16)">
        <ellipse
           id="ellipse831928"
           cx="56.411999"
           cy="104.07"
           rx="9.1730003"
           ry="4.6052999"
           fill="#3e3e3e"
           filter="url(#filter719603)"
           opacity="0.6" />
        <path
           id="path831930"
           d="m 47.26,100.45 v 3.6256 c 0.1717,2.4766 4.2162,4.4409 9.1521,4.4451 5.0662,-5e-5 9.1731,-2.062 9.1728,-4.6055 -2.67e-4,-0.0172 -9.21e-4,-0.0344 -0.0014,-0.0516 h 0.02238 v -3.3617 c -0.01547,2.5377 -4.1173,3.3993 -9.1721,3.3996 -5.0661,1e-5 -9.173,-0.8702 -9.1731,-3.4136 0.0014,-0.0126 0.0018,-0.0252 0.0028,-0.0379 z"
           fill="url(#linearGradient832002)"
           style="fill:url(#linearGradient832002)" />
        <ellipse
           id="ellipse831932"
           cx="56.411999"
           cy="100.49"
           rx="9.1730003"
           ry="4.6052999"
           fill="#8435f2" />
      </g>
      <g
         id="g831942"
         transform="matrix(1.2016,0,0,1.2016,63.588,-58.801)">
        <ellipse
           id="ellipse831936"
           cx="56.411999"
           cy="93.283997"
           rx="9.1730003"
           ry="4.6052999"
           fill="#3e3e3e"
           filter="url(#filter719603)"
           opacity="0.6" />
        <path
           id="path831938"
           d="m 47.26,89.712 v 3.6257 c 0.1717,2.4766 4.2162,4.4409 9.1521,4.4451 5.0662,-5e-5 9.1731,-2.062 9.1728,-4.6055 -2.67e-4,-0.01722 -9.21e-4,-0.03445 -0.0014,-0.05164 h 0.02238 v -3.3617 c -0.01547,2.5377 -4.1173,3.3993 -9.1721,3.3996 -5.0661,9e-6 -9.173,-0.8702 -9.1731,-3.4136 0.0014,-0.01262 0.0018,-0.02524 0.0028,-0.03786 z"
           fill="url(#linearGradient832004)"
           style="fill:url(#linearGradient832004)" />
        <ellipse
           id="ellipse831940"
           cx="56.411999"
           cy="89.753998"
           rx="9.1730003"
           ry="4.6052999"
           fill="#db45fc" />
      </g>
    </g>
  </g>
  <text
     id="text1042"
     x="79.130783"
     y="51.766136"
     fill="#ffffff"
     font-family="sans-serif"
     font-size="4.9389px"
     stroke-width="0.26458"
     style="line-height:1.25"
     xml:space="preserve"><tspan
       id="tspan1040"
       x="79.130783"
       y="51.766136"
       fill="#ffffff"
       font-family="Raleway"
       font-size="4.9389px"
       stroke-width="0.26458">REST API</tspan></text>
  <text
     id="text12307"
     x="55.550209"
     y="48.078224"
     fill="#ffffff"
     font-family="Raleway"
     font-size="4.9389px"
     stroke-width="0.26458"
     text-align="center"
     text-anchor="middle"
     style="line-height:1.25"
     xml:space="preserve"><tspan
       id="tspan15059"
       x="47.865288"
       y="48.078224"
       text-align="center"><tspan
         id="tspan12305"
         x="47.865288"
         y="48.078224"
         fill="#ffffff"
         font-family="Raleway"
         font-size="4.9389px"
         stroke-width="0.26458"
         text-align="center"
         text-anchor="middle">Python</tspan></tspan><tspan
       id="tspan15061"
       x="47.865288"
       y="54.45393"
       text-align="center">library</tspan></text>
  <rect
     id="rect35186"
     y="16.998974"
     width="26.334999"
     height="15.234"
     rx="1.5393"
     ry="1.5393"
     fill="#716388"
     stroke-linecap="round"
     stroke-linejoin="round"
     stroke-width="2.3328"
     x="5.291666" />
  <rect
     id="rect35186-3"
     y="17.489796"
     width="26.334999"
     height="15.234"
     rx="1.5393"
     ry="1.5393"
     fill="#716388"
     stroke-linecap="round"
     stroke-linejoin="round"
     stroke-width="2.3328"
     x="99.987923" />
  <text
     id="text35190"
     x="14.741246"
     y="26.281378"
     fill="#ffffff"
     font-family="sans-serif"
     font-size="4.9389px"
     stroke-width="0.26458"
     style="line-height:1.25"
     xml:space="preserve"><tspan
       id="tspan35188"
       x="14.741246"
       y="26.281378"
       fill="#ffffff"
       font-family="Raleway"
       font-size="4.9389px"
       stroke-width="0.26458">CLI</tspan></text>
  <text
     id="text1042-2"
     x="104.35387"
     y="26.369236"
     fill="#ffffff"
     font-family="sans-serif"
     font-size="4.9389px"
     stroke-width="0.26458"
     style="line-height:1.25"
     xml:space="preserve"><tspan
       id="tspan1040-7"
       x="104.35387"
       y="26.369236"
       fill="#ffffff"
       font-family="Raleway"
       font-size="4.9389px"
       stroke-width="0.26458">Web-UI</tspan></text>
</svg>
