<?xml version="1.0" encoding="UTF-8" standalone="no"?>
<!-- Created with Inkscape (http://www.inkscape.org/) -->

<svg
   width="62.653854mm"
   height="67.056198mm"
   viewBox="0 0 62.653854 67.056198"
   version="1.1"
   id="svg535506"
   inkscape:version="1.1.1 (3bf5ae0d25, 2021-09-20)"
   sodipodi:docname="logo_racksdb.svg"
   xmlns:inkscape="http://www.inkscape.org/namespaces/inkscape"
   xmlns:sodipodi="http://sodipodi.sourceforge.net/DTD/sodipodi-0.dtd"
   xmlns:xlink="http://www.w3.org/1999/xlink"
   xmlns="http://www.w3.org/2000/svg"
   xmlns:svg="http://www.w3.org/2000/svg">
  <sodipodi:namedview
     id="namedview535508"
     pagecolor="#ffffff"
     bordercolor="#666666"
     borderopacity="1.0"
     inkscape:pageshadow="2"
     inkscape:pageopacity="0.0"
     inkscape:pagecheckerboard="0"
     inkscape:document-units="mm"
     showgrid="true"
     inkscape:zoom="1.0998546"
     inkscape:cx="-105.92309"
     inkscape:cy="378.68642"
     inkscape:window-width="3840"
     inkscape:window-height="2096"
     inkscape:window-x="0"
     inkscape:window-y="0"
     inkscape:window-maximized="1"
     inkscape:current-layer="layer1"
     fit-margin-top="0"
     fit-margin-left="0"
     fit-margin-right="0"
     fit-margin-bottom="0">
    <inkscape:grid
       type="axonomgrid"
       id="grid535567"
       visible="true"
       originx="-85.736519"
       originy="-5.1789051" />
  </sodipodi:namedview>
  <defs
     id="defs535503">
    <linearGradient
       inkscape:collect="always"
       id="linearGradient829828">
      <stop
         style="stop-color:#dfdfdf;stop-opacity:1;"
         offset="0"
         id="stop829824" />
      <stop
         style="stop-color:#dfdfdf;stop-opacity:0;"
         offset="1"
         id="stop829826" />
    </linearGradient>
    <linearGradient
       inkscape:collect="always"
       id="linearGradient828922">
      <stop
         style="stop-color:#dfdfdf;stop-opacity:1;"
         offset="0"
         id="stop828918" />
      <stop
         style="stop-color:#dfdfdf;stop-opacity:0;"
         offset="1"
         id="stop828920" />
    </linearGradient>
    <linearGradient
       inkscape:collect="always"
       id="linearGradient719033">
      <stop
         style="stop-color:#5c2ef0;stop-opacity:1;"
         offset="0"
         id="stop719029" />
      <stop
         style="stop-color:#231b8f;stop-opacity:1"
         offset="1"
         id="stop719031" />
    </linearGradient>
    <linearGradient
       inkscape:collect="always"
       id="linearGradient707963">
      <stop
         style="stop-color:#9a3af6;stop-opacity:1;"
         offset="0"
         id="stop707959" />
      <stop
         style="stop-color:#6129ef;stop-opacity:1"
         offset="1"
         id="stop707961" />
    </linearGradient>
    <linearGradient
       inkscape:collect="always"
       id="linearGradient692947">
      <stop
         style="stop-color:#eb49fe;stop-opacity:1;"
         offset="0"
         id="stop692943" />
      <stop
         style="stop-color:#9a3af6;stop-opacity:1"
         offset="1"
         id="stop692945" />
    </linearGradient>
    <linearGradient
       id="linearGradient58763"
       x1="140.36794"
       x2="138.10197"
       y1="2.8411155"
       y2="2.8411155"
       gradientTransform="scale(0.22549381,4.4347116)"
       gradientUnits="userSpaceOnUse">
      <stop
         offset="0%"
         stop-color="#81361C"
         id="stop58757"
         style="stop-color:#dc6c3a;stop-opacity:1" />
      <stop
         offset="28%"
         stop-color="#81361C"
         id="stop58759"
         style="stop-color:#b0431e;stop-opacity:1" />
      <stop
         offset="100%"
         stop-color="#A04A2A"
         id="stop58761"
         style="stop-color:#963d1c;stop-opacity:1" />
    </linearGradient>
    <filter
       inkscape:collect="always"
       style="color-interpolation-filters:sRGB"
       id="filter719603"
       x="-0.081110361"
       y="-0.16156035"
       width="1.1622207"
       height="1.3231207">
      <feGaussianBlur
         inkscape:collect="always"
         stdDeviation="0.62002308"
         id="feGaussianBlur719605" />
    </filter>
    <linearGradient
       inkscape:collect="always"
       xlink:href="#linearGradient707963"
       id="linearGradient814640"
       x1="40.893452"
       y1="115.40945"
       x2="51.20776"
       y2="115.75975"
       gradientUnits="userSpaceOnUse"
       gradientTransform="matrix(1.7432713,0,0,1.7432713,-5.8365484,-85.086297)" />
    <linearGradient
       inkscape:collect="always"
       xlink:href="#linearGradient829828"
       id="linearGradient831964"
       gradientUnits="userSpaceOnUse"
       x1="56.291649"
       y1="112.5"
       x2="56.291649"
       y2="95.5" />
    <linearGradient
       inkscape:collect="always"
       xlink:href="#linearGradient829828"
       id="linearGradient831966"
       gradientUnits="userSpaceOnUse"
       x1="56.291649"
       y1="112.5"
       x2="56.291649"
       y2="95.5" />
    <linearGradient
       inkscape:collect="always"
       xlink:href="#linearGradient829828"
       id="linearGradient831968"
       gradientUnits="userSpaceOnUse"
       x1="56.291649"
       y1="112.5"
       x2="56.291649"
       y2="95.5" />
    <linearGradient
       inkscape:collect="always"
       xlink:href="#linearGradient829828"
       id="linearGradient831970"
       gradientUnits="userSpaceOnUse"
       x1="56.291649"
       y1="112.5"
       x2="56.291649"
       y2="95.5" />
    <linearGradient
       inkscape:collect="always"
       xlink:href="#linearGradient829828"
       id="linearGradient831972"
       gradientUnits="userSpaceOnUse"
       x1="56.291649"
       y1="112.5"
       x2="56.291649"
       y2="95.5" />
    <linearGradient
       inkscape:collect="always"
       xlink:href="#linearGradient829828"
       id="linearGradient831974"
       gradientUnits="userSpaceOnUse"
       x1="56.291649"
       y1="112.5"
       x2="56.291649"
       y2="95.5" />
    <linearGradient
       inkscape:collect="always"
       xlink:href="#linearGradient829828"
       id="linearGradient831976"
       gradientUnits="userSpaceOnUse"
       x1="56.291649"
       y1="112.5"
       x2="56.291649"
       y2="95.5" />
    <linearGradient
       inkscape:collect="always"
       xlink:href="#linearGradient829828"
       id="linearGradient831978"
       gradientUnits="userSpaceOnUse"
       x1="56.291649"
       y1="112.5"
       x2="56.291649"
       y2="95.5" />
    <linearGradient
       inkscape:collect="always"
       xlink:href="#linearGradient829828"
       id="linearGradient831980"
       gradientUnits="userSpaceOnUse"
       x1="56.291649"
       y1="112.5"
       x2="56.291649"
       y2="95.5" />
    <linearGradient
       inkscape:collect="always"
       xlink:href="#linearGradient828922"
       id="linearGradient831982"
       gradientUnits="userSpaceOnUse"
       x1="56.291653"
       y1="110.5"
       x2="56.291653"
       y2="93.5" />
    <linearGradient
       inkscape:collect="always"
       xlink:href="#linearGradient828922"
       id="linearGradient831984"
       gradientUnits="userSpaceOnUse"
       x1="56.291653"
       y1="110.5"
       x2="56.291653"
       y2="93.5" />
    <linearGradient
       inkscape:collect="always"
       xlink:href="#linearGradient828922"
       id="linearGradient831986"
       gradientUnits="userSpaceOnUse"
       x1="56.291653"
       y1="110.5"
       x2="56.291653"
       y2="93.5" />
    <linearGradient
       inkscape:collect="always"
       xlink:href="#linearGradient828922"
       id="linearGradient831988"
       gradientUnits="userSpaceOnUse"
       x1="56.291653"
       y1="110.5"
       x2="56.291653"
       y2="93.5" />
    <linearGradient
       inkscape:collect="always"
       xlink:href="#linearGradient828922"
       id="linearGradient831990"
       gradientUnits="userSpaceOnUse"
       x1="56.291653"
       y1="110.5"
       x2="56.291653"
       y2="93.5" />
    <linearGradient
       inkscape:collect="always"
       xlink:href="#linearGradient828922"
       id="linearGradient831992"
       gradientUnits="userSpaceOnUse"
       x1="56.291653"
       y1="110.5"
       x2="56.291653"
       y2="93.5" />
    <linearGradient
       inkscape:collect="always"
       xlink:href="#linearGradient828922"
       id="linearGradient831994"
       gradientUnits="userSpaceOnUse"
       x1="56.291653"
       y1="110.5"
       x2="56.291653"
       y2="93.5" />
    <linearGradient
       inkscape:collect="always"
       xlink:href="#linearGradient828922"
       id="linearGradient831996"
       gradientUnits="userSpaceOnUse"
       x1="56.291653"
       y1="110.5"
       x2="56.291653"
       y2="93.5" />
    <linearGradient
       inkscape:collect="always"
       xlink:href="#linearGradient828922"
       id="linearGradient831998"
       gradientUnits="userSpaceOnUse"
       x1="56.291653"
       y1="110.5"
       x2="56.291653"
       y2="93.5" />
    <linearGradient
       inkscape:collect="always"
       xlink:href="#linearGradient719033"
       id="linearGradient832000"
       gradientUnits="userSpaceOnUse"
       x1="47.260418"
       y1="115.48668"
       x2="65.606369"
       y2="115.48668" />
    <linearGradient
       inkscape:collect="always"
       xlink:href="#linearGradient707963"
       id="linearGradient832002"
       gradientUnits="userSpaceOnUse"
       x1="47.260418"
       y1="104.48668"
       x2="65.606369"
       y2="104.48668" />
    <linearGradient
       inkscape:collect="always"
       xlink:href="#linearGradient692947"
       id="linearGradient832004"
       gradientUnits="userSpaceOnUse"
       x1="47.260422"
       y1="93.747505"
       x2="65.606369"
       y2="93.747505" />
    <radialGradient
       xlink:href="#linearGradient38643"
       id="radialGradient120361"
       cx="86.326981"
       cy="40.42054"
       fx="86.326981"
       fy="40.42054"
       r="10.392308"
       gradientTransform="matrix(-1.7952573,0.81596202,-0.23725053,-0.52199164,195.55662,-22.519728)"
       gradientUnits="userSpaceOnUse" />
    <linearGradient
       id="linearGradient38643">
      <stop
         style="stop-color:#000000;stop-opacity:1"
         offset="0"
         id="stop38639" />
      <stop
         style="stop-color:#323232;stop-opacity:0"
         offset="1"
         id="stop38641" />
    </linearGradient>
    <marker
       style="overflow:visible"
       id="DotM"
       refX="0"
       refY="0"
       orient="auto">
      <path
         transform="matrix(0.4,0,0,0.4,2.96,0.4)"
         style="fill:context-stroke;fill-rule:evenodd;stroke:context-stroke;stroke-width:1pt"
         d="m -2.5,-1 c 0,2.76 -2.24,5 -5,5 -2.76,0 -5,-2.24 -5,-5 0,-2.76 2.24,-5 5,-5 2.76,0 5,2.24 5,5 z"
         id="path95192" />
    </marker>
    <marker
       style="overflow:visible"
       id="marker904432"
       refX="0"
       refY="0"
       orient="auto">
      <path
         transform="matrix(0.4,0,0,0.4,2.96,0.4)"
         style="fill:context-stroke;fill-rule:evenodd;stroke:context-stroke;stroke-width:1pt"
         d="m -2.5,-1 c 0,2.76 -2.24,5 -5,5 -2.76,0 -5,-2.24 -5,-5 0,-2.76 2.24,-5 5,-5 2.76,0 5,2.24 5,5 z"
         id="path904430" />
    </marker>
    <marker
       style="overflow:visible"
       id="marker904436"
       refX="0"
       refY="0"
       orient="auto">
      <path
         transform="matrix(0.4,0,0,0.4,2.96,0.4)"
         style="fill:context-stroke;fill-rule:evenodd;stroke:context-stroke;stroke-width:1pt"
         d="m -2.5,-1 c 0,2.76 -2.24,5 -5,5 -2.76,0 -5,-2.24 -5,-5 0,-2.76 2.24,-5 5,-5 2.76,0 5,2.24 5,5 z"
         id="path904434" />
    </marker>
    <marker
       style="overflow:visible"
       id="marker904440"
       refX="0"
       refY="0"
       orient="auto">
      <path
         transform="matrix(0.4,0,0,0.4,2.96,0.4)"
         style="fill:context-stroke;fill-rule:evenodd;stroke:context-stroke;stroke-width:1pt"
         d="m -2.5,-1 c 0,2.76 -2.24,5 -5,5 -2.76,0 -5,-2.24 -5,-5 0,-2.76 2.24,-5 5,-5 2.76,0 5,2.24 5,5 z"
         id="path904438" />
    </marker>
    <marker
       style="overflow:visible"
       id="marker904444"
       refX="0"
       refY="0"
       orient="auto">
      <path
         transform="matrix(0.4,0,0,0.4,2.96,0.4)"
         style="fill:context-stroke;fill-rule:evenodd;stroke:context-stroke;stroke-width:1pt"
         d="m -2.5,-1 c 0,2.76 -2.24,5 -5,5 -2.76,0 -5,-2.24 -5,-5 0,-2.76 2.24,-5 5,-5 2.76,0 5,2.24 5,5 z"
         id="path904442" />
    </marker>
    <marker
       style="overflow:visible"
       id="marker904448"
       refX="0"
       refY="0"
       orient="auto">
      <path
         transform="matrix(0.4,0,0,0.4,2.96,0.4)"
         style="fill:context-stroke;fill-rule:evenodd;stroke:context-stroke;stroke-width:1pt"
         d="m -2.5,-1 c 0,2.76 -2.24,5 -5,5 -2.76,0 -5,-2.24 -5,-5 0,-2.76 2.24,-5 5,-5 2.76,0 5,2.24 5,5 z"
         id="path904446" />
    </marker>
    <radialGradient
       xlink:href="#linearGradient38643"
       id="radialGradient120361-1"
       cx="86.326981"
       cy="40.42054"
       fx="86.326981"
       fy="40.42054"
       r="10.392308"
       gradientTransform="matrix(-4.0323814,1.8327568,-0.53289554,-1.1724611,351.02598,-80.030404)"
       gradientUnits="userSpaceOnUse" />
    <linearGradient
       id="linearGradient891118">
      <stop
         style="stop-color:#000000;stop-opacity:1"
         offset="0"
         id="stop891114" />
      <stop
         style="stop-color:#ffffff;stop-opacity:1"
         offset="1"
         id="stop891116" />
    </linearGradient>
    <marker
       style="overflow:visible"
       id="DotM-8"
       refX="0"
       refY="0"
       orient="auto">
      <path
         transform="matrix(0.4,0,0,0.4,2.96,0.4)"
         style="fill:context-stroke;fill-rule:evenodd;stroke:context-stroke;stroke-width:1pt"
         d="m -2.5,-1 c 0,2.76 -2.24,5 -5,5 -2.76,0 -5,-2.24 -5,-5 0,-2.76 2.24,-5 5,-5 2.76,0 5,2.24 5,5 z"
         id="path95192-0" />
    </marker>
    <marker
       style="overflow:visible"
       id="marker1098693"
       refX="0"
       refY="0"
       orient="auto">
      <path
         transform="matrix(0.4,0,0,0.4,2.96,0.4)"
         style="fill:context-stroke;fill-rule:evenodd;stroke:context-stroke;stroke-width:1pt"
         d="m -2.5,-1 c 0,2.76 -2.24,5 -5,5 -2.76,0 -5,-2.24 -5,-5 0,-2.76 2.24,-5 5,-5 2.76,0 5,2.24 5,5 z"
         id="path1098691" />
    </marker>
    <marker
       style="overflow:visible"
       id="marker1098697"
       refX="0"
       refY="0"
       orient="auto">
      <path
         transform="matrix(0.4,0,0,0.4,2.96,0.4)"
         style="fill:context-stroke;fill-rule:evenodd;stroke:context-stroke;stroke-width:1pt"
         d="m -2.5,-1 c 0,2.76 -2.24,5 -5,5 -2.76,0 -5,-2.24 -5,-5 0,-2.76 2.24,-5 5,-5 2.76,0 5,2.24 5,5 z"
         id="path1098695" />
    </marker>
    <marker
       style="overflow:visible"
       id="marker1098701"
       refX="0"
       refY="0"
       orient="auto">
      <path
         transform="matrix(0.4,0,0,0.4,2.96,0.4)"
         style="fill:context-stroke;fill-rule:evenodd;stroke:context-stroke;stroke-width:1pt"
         d="m -2.5,-1 c 0,2.76 -2.24,5 -5,5 -2.76,0 -5,-2.24 -5,-5 0,-2.76 2.24,-5 5,-5 2.76,0 5,2.24 5,5 z"
         id="path1098699" />
    </marker>
    <marker
       style="overflow:visible"
       id="marker1098705"
       refX="0"
       refY="0"
       orient="auto">
      <path
         transform="matrix(0.4,0,0,0.4,2.96,0.4)"
         style="fill:context-stroke;fill-rule:evenodd;stroke:context-stroke;stroke-width:1pt"
         d="m -2.5,-1 c 0,2.76 -2.24,5 -5,5 -2.76,0 -5,-2.24 -5,-5 0,-2.76 2.24,-5 5,-5 2.76,0 5,2.24 5,5 z"
         id="path1098703" />
    </marker>
    <marker
       style="overflow:visible"
       id="marker1098709"
       refX="0"
       refY="0"
       orient="auto">
      <path
         transform="matrix(0.4,0,0,0.4,2.96,0.4)"
         style="fill:context-stroke;fill-rule:evenodd;stroke:context-stroke;stroke-width:1pt"
         d="m -2.5,-1 c 0,2.76 -2.24,5 -5,5 -2.76,0 -5,-2.24 -5,-5 0,-2.76 2.24,-5 5,-5 2.76,0 5,2.24 5,5 z"
         id="path1098707" />
    </marker>
    <radialGradient
       xlink:href="#linearGradient38643"
       id="radialGradient120361-2"
       cx="86.326981"
       cy="40.42054"
       fx="86.326981"
       fy="40.42054"
       r="10.392308"
       gradientTransform="matrix(-7.8333315,3.5603258,-1.0352065,-2.2776309,794.40218,-157.88161)"
       gradientUnits="userSpaceOnUse" />
  </defs>
  <g
     inkscape:label="Calque 1"
     inkscape:groupmode="layer"
     id="layer1"
     transform="translate(-85.73652,-5.1789051)">
    <g
       id="g825078"
       transform="matrix(1.2775912,0,0,1.2775912,45.230861,-81.912737)">
      <text
         xml:space="preserve"
         style="font-style:normal;font-weight:normal;font-size:12.3283px;line-height:1.25;font-family:sans-serif;fill:url(#linearGradient814640);fill-opacity:1;stroke:none;stroke-width:0.308207;stroke-opacity:1"
         x="64.151436"
         y="120.65505"
         id="text104277-6"><tspan
           id="tspan104275-3"
           style="font-style:normal;font-variant:normal;font-weight:300;font-stretch:normal;font-family:Raleway;-inkscape-font-specification:'Raleway Light';fill:url(#linearGradient814640);fill-opacity:1;stroke:none;stroke-width:0.308207;stroke-opacity:1"
           x="64.151436"
           y="120.65505"><tspan
             style="font-style:normal;font-variant:normal;font-weight:500;font-stretch:normal;font-family:Raleway;-inkscape-font-specification:'Raleway Medium';fill:url(#linearGradient814640);fill-opacity:1;stroke:none;stroke-width:0.308207;stroke-opacity:1"
             id="tspan762836">DB</tspan></tspan></text>
      <text
         xml:space="preserve"
         style="font-style:normal;font-weight:normal;font-size:12.3283px;line-height:1.25;font-family:sans-serif;fill:#333333;fill-opacity:1;stroke:none;stroke-width:0.308207;stroke-opacity:1"
         x="30.842072"
         y="120.53178"
         id="text822693"><tspan
           id="tspan822691"
           style="font-style:normal;font-variant:normal;font-weight:300;font-stretch:normal;font-family:Raleway;-inkscape-font-specification:'Raleway Light';fill:#333333;fill-opacity:1;stroke:none;stroke-width:0.308207;stroke-opacity:1"
           x="30.842072"
           y="120.53178">Racks</tspan></text>
    </g>
    <g
       id="g974036">
      <path
         style="fill:#f6f6f6;fill-opacity:1;stroke:none;stroke-width:0.264583px;stroke-linecap:butt;stroke-linejoin:miter;stroke-opacity:1"
         d="m 85.73652,37.5 31.17691,18 31.17692,-18 -31.17692,-18 z"
         id="path831840"
         sodipodi:nodetypes="ccccc" />
      <g
         id="g831858"
         style="stroke:url(#linearGradient831980);stroke-opacity:1"
         transform="matrix(-1,0,0,1,173.20508,-59)">
        <path
           style="fill:none;fill-opacity:1;stroke:url(#linearGradient831964);stroke-width:0.264583px;stroke-linecap:butt;stroke-linejoin:miter;stroke-opacity:1"
           d="m 52.82755,112.5 31.176914,-18"
           id="path831842"
           sodipodi:nodetypes="cc" />
        <path
           style="fill:none;fill-opacity:1;stroke:url(#linearGradient831966);stroke-width:0.264583px;stroke-linecap:butt;stroke-linejoin:miter;stroke-opacity:1"
           d="m 49.363448,110.5 31.176914,-18"
           id="path831844"
           sodipodi:nodetypes="cc" />
        <path
           style="fill:none;fill-opacity:1;stroke:url(#linearGradient831968);stroke-width:0.264583px;stroke-linecap:butt;stroke-linejoin:miter;stroke-opacity:1"
           d="M 45.899346,108.5 77.07626,90.5"
           id="path831846"
           sodipodi:nodetypes="cc" />
        <path
           style="fill:none;fill-opacity:1;stroke:url(#linearGradient831970);stroke-width:0.264583px;stroke-linecap:butt;stroke-linejoin:miter;stroke-opacity:1"
           d="m 42.435245,106.5 31.176914,-18"
           id="path831848"
           sodipodi:nodetypes="cc" />
        <path
           style="fill:none;fill-opacity:1;stroke:url(#linearGradient831972);stroke-width:0.264583px;stroke-linecap:butt;stroke-linejoin:miter;stroke-opacity:1"
           d="m 38.971143,104.5 31.176914,-18"
           id="path831850"
           sodipodi:nodetypes="cc" />
        <path
           style="fill:none;fill-opacity:1;stroke:url(#linearGradient831974);stroke-width:0.264583px;stroke-linecap:butt;stroke-linejoin:miter;stroke-opacity:1"
           d="m 35.507042,102.5 31.176914,-18"
           id="path831852"
           sodipodi:nodetypes="cc" />
        <path
           style="fill:none;fill-opacity:1;stroke:url(#linearGradient831976);stroke-width:0.264583px;stroke-linecap:butt;stroke-linejoin:miter;stroke-opacity:1"
           d="m 32.04294,100.5 31.176914,-18"
           id="path831854"
           sodipodi:nodetypes="cc" />
        <path
           style="fill:none;fill-opacity:1;stroke:url(#linearGradient831978);stroke-width:0.264583px;stroke-linecap:butt;stroke-linejoin:miter;stroke-opacity:1"
           d="m 28.578838,98.5 31.176914,-18"
           id="path831856"
           sodipodi:nodetypes="cc" />
      </g>
      <g
         id="g831876"
         style="stroke:url(#linearGradient831998);stroke-opacity:1"
         transform="translate(60.62178,-59)">
        <path
           style="fill:none;fill-opacity:1;stroke:url(#linearGradient831982);stroke-width:0.264583px;stroke-linecap:butt;stroke-linejoin:miter;stroke-opacity:1"
           d="m 52.82755,112.5 31.176914,-18"
           id="path831860"
           sodipodi:nodetypes="cc" />
        <path
           style="fill:none;fill-opacity:1;stroke:url(#linearGradient831984);stroke-width:0.264583px;stroke-linecap:butt;stroke-linejoin:miter;stroke-opacity:1"
           d="m 49.363448,110.5 31.176914,-18"
           id="path831862"
           sodipodi:nodetypes="cc" />
        <path
           style="fill:none;fill-opacity:1;stroke:url(#linearGradient831986);stroke-width:0.264583px;stroke-linecap:butt;stroke-linejoin:miter;stroke-opacity:1"
           d="M 45.899346,108.5 77.07626,90.5"
           id="path831864"
           sodipodi:nodetypes="cc" />
        <path
           style="fill:none;fill-opacity:1;stroke:url(#linearGradient831988);stroke-width:0.264583px;stroke-linecap:butt;stroke-linejoin:miter;stroke-opacity:1"
           d="m 42.435245,106.5 31.176914,-18"
           id="path831866"
           sodipodi:nodetypes="cc" />
        <path
           style="fill:none;fill-opacity:1;stroke:url(#linearGradient831990);stroke-width:0.264583px;stroke-linecap:butt;stroke-linejoin:miter;stroke-opacity:1"
           d="m 38.971143,104.5 31.176914,-18"
           id="path831868"
           sodipodi:nodetypes="cc" />
        <path
           style="fill:none;fill-opacity:1;stroke:url(#linearGradient831992);stroke-width:0.264583px;stroke-linecap:butt;stroke-linejoin:miter;stroke-opacity:1"
           d="m 35.507042,102.5 31.176914,-18"
           id="path831870"
           sodipodi:nodetypes="cc" />
        <path
           style="fill:none;fill-opacity:1;stroke:url(#linearGradient831994);stroke-width:0.264583px;stroke-linecap:butt;stroke-linejoin:miter;stroke-opacity:1"
           d="m 32.04294,100.5 31.176914,-18"
           id="path831872"
           sodipodi:nodetypes="cc" />
        <path
           style="fill:none;fill-opacity:1;stroke:url(#linearGradient831996);stroke-width:0.264583px;stroke-linecap:butt;stroke-linejoin:miter;stroke-opacity:1"
           d="m 28.578838,98.5 31.176914,-18"
           id="path831874"
           sodipodi:nodetypes="cc" />
      </g>
      <path
         style="fill:#262626;fill-opacity:1;stroke:#262626;stroke-width:0.05;stroke-linecap:butt;stroke-linejoin:miter;stroke-miterlimit:4;stroke-dasharray:none;stroke-opacity:1"
         d="m 125.57368,33.5 -3.4641,-1.999998 V 22.500001 L 125.57368,24.5 Z"
         id="path831878" />
      <path
         style="fill:#444444;fill-opacity:1;stroke:#444444;stroke-width:0.05;stroke-linecap:butt;stroke-linejoin:round;stroke-miterlimit:4;stroke-dasharray:none;stroke-opacity:1"
         d="m 125.57368,33.5 v -9 l 5.19616,-2.999999 v 9 L 125.57368,33.5"
         id="path831880" />
      <path
         style="fill:#3c3c3c;fill-opacity:1;stroke:#3c3c3c;stroke-width:0.05;stroke-linecap:butt;stroke-linejoin:round;stroke-miterlimit:4;stroke-dasharray:none;stroke-opacity:1"
         d="m 125.57368,24.5 -3.4641,-1.999999 5.19615,-2.999999 3.46411,1.999999 z"
         id="path831882" />
      <path
         style="fill:#262626;fill-opacity:1;stroke:#262626;stroke-width:0.05;stroke-linecap:butt;stroke-linejoin:miter;stroke-miterlimit:4;stroke-dasharray:none;stroke-opacity:1"
         d="m 131.63586,37 -3.4641,-1.999998 V 26.000001 L 131.63586,28 Z"
         id="path831884" />
      <path
         style="fill:#444444;fill-opacity:1;stroke:#444444;stroke-width:0.05;stroke-linecap:butt;stroke-linejoin:round;stroke-miterlimit:4;stroke-dasharray:none;stroke-opacity:1"
         d="m 131.63586,37 v -9 l 5.19615,-2.999999 v 9 L 131.63586,37"
         id="path831886" />
      <path
         style="fill:#3c3c3c;fill-opacity:1;stroke:#3c3c3c;stroke-width:0.05;stroke-linecap:butt;stroke-linejoin:round;stroke-miterlimit:4;stroke-dasharray:none;stroke-opacity:1"
         d="m 131.63586,28 -3.4641,-1.999999 5.19615,-2.999999 3.4641,1.999999 z"
         id="path831888" />
      <path
         style="fill:#262626;fill-opacity:1;stroke:#262626;stroke-width:0.05;stroke-linecap:butt;stroke-linejoin:miter;stroke-miterlimit:4;stroke-dasharray:none;stroke-opacity:1"
         d="m 108.25318,33.5 3.4641,-1.999998 V 22.500001 L 108.25318,24.5 Z"
         id="path831890" />
      <path
         style="fill:#444444;fill-opacity:1;stroke:#444444;stroke-width:0.05;stroke-linecap:butt;stroke-linejoin:round;stroke-miterlimit:4;stroke-dasharray:none;stroke-opacity:1"
         d="m 108.25318,33.5 v -9 l -5.19615,-2.999999 v 9 L 108.25318,33.5"
         id="path831892" />
      <path
         style="fill:#3c3c3c;fill-opacity:1;stroke:#3c3c3c;stroke-width:0.05;stroke-linecap:butt;stroke-linejoin:round;stroke-miterlimit:4;stroke-dasharray:none;stroke-opacity:1"
         d="m 108.25318,24.5 3.4641,-1.999999 -5.19615,-2.999999 -3.4641,1.999999 z"
         id="path831894" />
      <path
         style="fill:#262626;fill-opacity:1;stroke:#262626;stroke-width:0.05;stroke-linecap:butt;stroke-linejoin:miter;stroke-miterlimit:4;stroke-dasharray:none;stroke-opacity:1"
         d="m 102.191,37 3.4641,-1.999998 V 26.000001 L 102.191,28 Z"
         id="path831896" />
      <path
         style="fill:#444444;fill-opacity:1;stroke:#444444;stroke-width:0.05;stroke-linecap:butt;stroke-linejoin:round;stroke-miterlimit:4;stroke-dasharray:none;stroke-opacity:1"
         d="m 102.191,37 v -9 l -5.19615,-2.999999 v 9 L 102.191,37"
         id="path831898" />
      <path
         style="fill:#3c3c3c;fill-opacity:1;stroke:#3c3c3c;stroke-width:0.05;stroke-linecap:butt;stroke-linejoin:round;stroke-miterlimit:4;stroke-dasharray:none;stroke-opacity:1"
         d="m 102.191,28 3.4641,-1.999999 -5.19615,-2.999999 -3.4641,1.999999 z"
         id="path831900" />
      <path
         style="fill:#262626;fill-opacity:1;stroke:none;stroke-width:0.264583px;stroke-linecap:butt;stroke-linejoin:miter;stroke-opacity:1"
         d="m 125.57368,33.5 -3.4641,-1.999998 V 22.500001 L 125.57368,24.5 Z"
         id="path831902" />
      <path
         style="fill:#262626;fill-opacity:1;stroke:none;stroke-width:0.264583px;stroke-linecap:butt;stroke-linejoin:miter;stroke-opacity:1"
         d="m 108.25318,33.5 3.4641,-1.999998 V 22.500001 L 108.25318,24.5 Z"
         id="path831904" />
      <path
         style="fill:#a2a2a2;fill-opacity:1;stroke:none;stroke-width:0.264583px;stroke-linecap:butt;stroke-linejoin:miter;stroke-opacity:1"
         d="M 96.99485,39.999999 98.726896,41 h 1.732054 v -1.000002 l -1.73205,-0.999999 -1.73205,1"
         id="path831906"
         sodipodi:nodetypes="cccccc" />
      <path
         style="fill:#a2a2a2;fill-opacity:1;stroke:none;stroke-width:0.264583px;stroke-linecap:butt;stroke-linejoin:miter;stroke-opacity:1"
         d="m 101.32497,40.5 v 1 h -1.732049 l 4.330129,2.5 h 6.9282 v -2 h -6.9282 z"
         id="path831908"
         sodipodi:nodetypes="cccccccc" />
      <path
         style="fill:#a2a2a2;fill-opacity:1;stroke:none;stroke-width:0.264583px;stroke-linecap:butt;stroke-linejoin:miter;stroke-opacity:1"
         d="M 103.05703,36.499999 105.6551,38 h 1.73205 v -1.000002 l -2.59807,-1.499999 -1.73205,1"
         id="path831910" />
      <path
         style="fill:#a2a2a2;fill-opacity:1;stroke:none;stroke-width:0.264583px;stroke-linecap:butt;stroke-linejoin:miter;stroke-opacity:1"
         d="m 108.25318,37.5 v 1 h -1.73205 l 3.4641,2 1.73205,-1 z"
         id="path831912"
         sodipodi:nodetypes="cccccc" />
      <path
         style="fill:#a2a2a2;fill-opacity:1;stroke:none;stroke-width:0.264583px;stroke-linecap:butt;stroke-linejoin:miter;stroke-opacity:1"
         d="m 136.83201,40 -1.73205,1 h -1.73205 V 39.999999 L 135.09996,39 l 1.73205,1"
         id="path831914"
         sodipodi:nodetypes="cccccc" />
      <path
         style="fill:#a2a2a2;fill-opacity:1;stroke:none;stroke-width:0.264583px;stroke-linecap:butt;stroke-linejoin:miter;stroke-opacity:1"
         d="m 132.50189,40.5 v 1 h 1.73205 l -4.33013,2.5 h -6.9282 v -2 h 6.9282 z"
         id="path831916"
         sodipodi:nodetypes="cccccccc" />
      <path
         style="fill:#a2a2a2;fill-opacity:1;stroke:none;stroke-width:0.317931px;stroke-linecap:butt;stroke-linejoin:miter;stroke-opacity:1"
         d="m 130.76984,36.5 -3.12193,1.80245 h -2.08129 v -1.201635 l 3.12193,-1.802447 2.08129,1.201632"
         id="path831918" />
      <path
         style="fill:#262626;fill-opacity:1;stroke:#262626;stroke-width:0.05;stroke-linecap:butt;stroke-linejoin:miter;stroke-miterlimit:4;stroke-dasharray:none;stroke-opacity:1"
         d="M 96.12882,40.499998 99.59292,38.5 v -9.000001 l -3.4641,1.999999 z"
         id="path831944" />
      <path
         style="fill:#444444;fill-opacity:1;stroke:#444444;stroke-width:0.05;stroke-linecap:butt;stroke-linejoin:round;stroke-miterlimit:4;stroke-dasharray:none;stroke-opacity:1"
         d="m 96.12882,40.499998 v -9 l -5.19615,-2.999999 v 9 l 5.19615,2.999999"
         id="path831946" />
      <path
         style="fill:#3c3c3c;fill-opacity:1;stroke:#3c3c3c;stroke-width:0.05;stroke-linecap:butt;stroke-linejoin:round;stroke-miterlimit:4;stroke-dasharray:none;stroke-opacity:1"
         d="M 96.12882,31.499998 99.59292,29.499999 94.39677,26.5 l -3.4641,1.999999 z"
         id="path831948" />
      <path
         style="fill:#262626;fill-opacity:1;stroke:#262626;stroke-width:0.05;stroke-linecap:butt;stroke-linejoin:miter;stroke-miterlimit:4;stroke-dasharray:none;stroke-opacity:1"
         d="m 137.69804,40.5 -3.4641,-1.999998 V 29.500001 L 137.69804,31.5 Z"
         id="path831950" />
      <path
         style="fill:#444444;fill-opacity:1;stroke:#444444;stroke-width:0.05;stroke-linecap:butt;stroke-linejoin:round;stroke-miterlimit:4;stroke-dasharray:none;stroke-opacity:1"
         d="m 137.69804,40.5 v -9 l 5.19615,-2.999999 v 9 L 137.69804,40.5"
         id="path831952" />
      <path
         style="fill:#3c3c3c;fill-opacity:1;stroke:#3c3c3c;stroke-width:0.05;stroke-linecap:butt;stroke-linejoin:round;stroke-miterlimit:4;stroke-dasharray:none;stroke-opacity:1"
         d="m 137.69804,31.5 -3.4641,-1.999999 5.19615,-2.999999 3.4641,1.999999 z"
         id="path831954" />
      <path
         style="fill:#c9c9c9;fill-opacity:1;stroke:none;stroke-width:0.264583px;stroke-linecap:butt;stroke-linejoin:miter;stroke-opacity:1"
         d="M 85.73652,37.500001 V 39.5 l 31.17691,18 v -2 L 85.73652,37.500001"
         id="path831958"
         sodipodi:nodetypes="ccccc" />
      <path
         style="fill:#999999;fill-opacity:1;stroke:none;stroke-width:0.264583px;stroke-linecap:butt;stroke-linejoin:miter;stroke-opacity:1"
         d="m 116.91343,57.5 v -2 L 148.09035,37.500001 V 39.5 l -31.17692,18"
         id="path831960"
         sodipodi:nodetypes="ccccc" />
      <g
         id="g832118"
         transform="matrix(1.3745217,0,0,1.5848978,-63.501147,-63.789756)">
        <g
           id="g831926"
           transform="matrix(1.2016321,0,0,1.2016321,63.587894,-72.154124)">
          <ellipse
             style="opacity:0.6;fill:#808080;fill-opacity:1;stroke:none;stroke-width:0.322368;stroke-linecap:round;stroke-linejoin:round;stroke-miterlimit:4;stroke-dasharray:none;stroke-opacity:1;filter:url(#filter719603)"
             id="ellipse831920"
             cx="56.412449"
             cy="115.69501"
             rx="9.1730289"
             ry="4.6052618" />
          <path
             id="path831922"
             style="fill:url(#linearGradient832000);fill-opacity:1;stroke:none;stroke-width:0.322368;stroke-linecap:round;stroke-linejoin:round;stroke-miterlimit:4;stroke-dasharray:none;stroke-opacity:1"
             d="m 47.260419,111.45133 v 3.62565 c 0.171703,2.47658 4.216154,4.44092 9.152128,4.44506 5.066203,-5e-5 9.173055,-2.062 9.172839,-4.60546 -2.67e-4,-0.0172 -9.21e-4,-0.0344 -0.0014,-0.0516 h 0.02238 v -3.36173 c -0.01547,2.53773 -4.117293,3.39933 -9.172125,3.39957 -5.066105,10e-6 -9.173022,-0.8702 -9.173073,-3.4136 0.0014,-0.0126 0.0018,-0.0252 0.0028,-0.0379 z"
             sodipodi:nodetypes="ccccccccccc" />
          <ellipse
             style="fill:#5229ef;fill-opacity:1;stroke:none;stroke-width:0.322368;stroke-linecap:round;stroke-linejoin:round;stroke-miterlimit:4;stroke-dasharray:none;stroke-opacity:1"
             id="ellipse831924"
             cx="56.412449"
             cy="111.49292"
             rx="9.1730289"
             ry="4.6052618" />
        </g>
        <g
           id="g831934"
           transform="matrix(1.2016321,0,0,1.2016321,63.587894,-65.159624)">
          <ellipse
             style="opacity:0.6;fill:#3e3e3e;fill-opacity:1;stroke:none;stroke-width:0.322368;stroke-linecap:round;stroke-linejoin:round;stroke-miterlimit:4;stroke-dasharray:none;stroke-opacity:1;filter:url(#filter719603)"
             id="ellipse831928"
             cx="56.412449"
             cy="104.07449"
             rx="9.1730289"
             ry="4.6052618" />
          <path
             id="path831930"
             style="fill:url(#linearGradient832002);fill-opacity:1;stroke:none;stroke-width:0.322368;stroke-linecap:round;stroke-linejoin:round;stroke-miterlimit:4;stroke-dasharray:none;stroke-opacity:1"
             d="m 47.260419,100.45133 v 3.62565 c 0.171703,2.47658 4.216154,4.44092 9.152128,4.44506 5.066203,-5e-5 9.173055,-2.062 9.172839,-4.60546 -2.67e-4,-0.0172 -9.21e-4,-0.0344 -0.0014,-0.0516 h 0.02238 v -3.36173 c -0.01547,2.53773 -4.117293,3.39933 -9.172125,3.39957 -5.066105,10e-6 -9.173022,-0.8702 -9.173073,-3.4136 0.0014,-0.0126 0.0018,-0.0252 0.0028,-0.0379 z"
             sodipodi:nodetypes="ccccccccccc" />
          <ellipse
             style="fill:#8435f2;fill-opacity:1;stroke:none;stroke-width:0.322368;stroke-linecap:round;stroke-linejoin:round;stroke-miterlimit:4;stroke-dasharray:none;stroke-opacity:1"
             id="ellipse831932"
             cx="56.412449"
             cy="100.49292"
             rx="9.1730289"
             ry="4.6052618" />
        </g>
        <g
           id="g831942"
           transform="matrix(1.2016321,0,0,1.2016321,63.587894,-58.800986)">
          <ellipse
             style="opacity:0.6;fill:#3e3e3e;fill-opacity:1;stroke:none;stroke-width:0.322368;stroke-linecap:round;stroke-linejoin:round;stroke-miterlimit:4;stroke-dasharray:none;stroke-opacity:1;filter:url(#filter719603)"
             id="ellipse831936"
             cx="56.412449"
             cy="93.284088"
             rx="9.1730289"
             ry="4.6052618" />
          <path
             id="path831938"
             style="fill:url(#linearGradient832004);fill-opacity:1;stroke:none;stroke-width:0.322368;stroke-linecap:round;stroke-linejoin:round;stroke-miterlimit:4;stroke-dasharray:none;stroke-opacity:1"
             d="m 47.26042,89.712154 v 3.625653 c 0.171702,2.476581 4.216153,4.440914 9.152128,4.445058 5.066202,-5e-5 9.173055,-2.062006 9.172838,-4.605459 -2.67e-4,-0.01722 -9.21e-4,-0.03445 -0.0014,-0.05164 h 0.02238 v -3.361731 c -0.01547,2.53773 -4.117292,3.399324 -9.172124,3.399568 -5.066106,9e-6 -9.173023,-0.870197 -9.173073,-3.413604 0.0014,-0.01262 0.0018,-0.02524 0.0028,-0.03786 z"
             sodipodi:nodetypes="ccccccccccc" />
          <ellipse
             style="fill:#db45fc;fill-opacity:1;stroke:none;stroke-width:0.322368;stroke-linecap:round;stroke-linejoin:round;stroke-miterlimit:4;stroke-dasharray:none;stroke-opacity:1"
             id="ellipse831940"
             cx="56.412449"
             cy="89.753738"
             rx="9.1730289"
             ry="4.6052618" />
        </g>
      </g>
    </g>
  </g>
</svg>
