<?xml version="1.0" encoding="UTF-8"?>
<!-- Created with Inkscape (http://www.inkscape.org/) -->
<svg id="svg535506" width="73.206mm" height="17.95mm" version="1.1" viewBox="0 0 73.206 17.95" xmlns="http://www.w3.org/2000/svg" xmlns:xlink="http://www.w3.org/1999/xlink">
 <defs id="defs535503">
  <linearGradient id="linearGradient829828">
   <stop id="stop829824" stop-color="#dfdfdf" offset="0"/>
   <stop id="stop829826" stop-color="#dfdfdf" stop-opacity="0" offset="1"/>
  </linearGradient>
  <linearGradient id="linearGradient707963-8">
   <stop id="stop707959" stop-color="#9a3af6" offset="0"/>
   <stop id="stop707961" stop-color="#6129ef" offset="1"/>
  </linearGradient>
  <filter id="filter719603" x="-.081111" y="-.16156" width="1.1622" height="1.3231" color-interpolation-filters="sRGB">
   <feGaussianBlur id="feGaussianBlur719605" stdDeviation="0.62002308"/>
  </filter>
  <linearGradient id="linearGradient6905" x1="56.292" x2="56.292" y1="112.5" y2="95.5" gradientUnits="userSpaceOnUse" xlink:href="#linearGradient829828"/>
  <linearGradient id="linearGradient6923" x1="56.292" x2="56.292" y1="110.5" y2="93.5" gradientUnits="userSpaceOnUse" xlink:href="#linearGradient829828"/>
  <linearGradient id="linearGradient6941" x1="47.26" x2="65.606" y1="115.49" y2="115.49" gradientUnits="userSpaceOnUse">
   <stop id="stop719029" stop-color="#5c2ef0" offset="0"/>
   <stop id="stop719031" stop-color="#231b8f" offset="1"/>
  </linearGradient>
  <linearGradient id="linearGradient6943" x1="47.26" x2="65.606" y1="104.49" y2="104.49" gradientUnits="userSpaceOnUse" xlink:href="#linearGradient707963-8"/>
  <linearGradient id="linearGradient6945" x1="47.26" x2="65.606" y1="93.748" y2="93.748" gradientUnits="userSpaceOnUse">
   <stop id="stop692943" stop-color="#eb49fe" offset="0"/>
   <stop id="stop692945" stop-color="#9a3af6" offset="1"/>
  </linearGradient>
  <linearGradient id="linearGradient6973" x1="40.893" x2="51.208" y1="115.41" y2="115.76" gradientTransform="matrix(1.7433,0,0,1.7433,-5.8365,-85.086)" gradientUnits="userSpaceOnUse" xlink:href="#linearGradient707963-8"/>
 </defs>
 <g id="logo_full_horizontal_white" transform="translate(17.441 17.564)">
  <g id="g6737" transform="matrix(.34305 0 0 .34305 -46.853 -19.34)">
   <path id="path6615" d="m85.737 37.5 31.177 18 31.177-18-31.177-18z" fill="#f6f6f6"/>
   <g id="g6633" transform="matrix(-1,0,0,1,173.21,-59)" fill="none" stroke="url(#linearGradient6905)" stroke-width=".26458px">
    <path id="path6617" d="m52.828 112.5 31.177-18"/>
    <path id="path6619" d="m49.363 110.5 31.177-18"/>
    <path id="path6621" d="m45.899 108.5 31.177-18"/>
    <path id="path6623" d="m42.435 106.5 31.177-18"/>
    <path id="path6625" d="m38.971 104.5 31.177-18"/>
    <path id="path6627" d="m35.507 102.5 31.177-18"/>
    <path id="path6629" d="m32.043 100.5 31.177-18"/>
    <path id="path6631" d="m28.579 98.5 31.177-18"/>
   </g>
   <g id="g6651" transform="translate(60.622,-59)" fill="none" stroke="url(#linearGradient6923)" stroke-width=".26458px">
    <path id="path6635" d="m52.828 112.5 31.177-18"/>
    <path id="path6637" d="m49.363 110.5 31.177-18"/>
    <path id="path6639" d="m45.899 108.5 31.177-18"/>
    <path id="path6641" d="m42.435 106.5 31.177-18"/>
    <path id="path6643" d="m38.971 104.5 31.177-18"/>
    <path id="path6645" d="m35.507 102.5 31.177-18"/>
    <path id="path6647" d="m32.043 100.5 31.177-18"/>
    <path id="path6649" d="m28.579 98.5 31.177-18"/>
   </g>
   <path id="path6653" d="m125.57 33.5-3.4641-2v-9l3.4641 2z" fill="#262626" stroke="#262626" stroke-width=".05"/>
   <path id="path6655" d="m125.57 33.5v-9l5.1962-3v9l-5.1962 3" fill="#444" stroke="#444" stroke-linejoin="round" stroke-width=".05"/>
   <path id="path6657" d="m125.57 24.5-3.4641-2 5.1962-3 3.4641 2z" fill="#3c3c3c" stroke="#3c3c3c" stroke-linejoin="round" stroke-width=".05"/>
   <path id="path6659" d="m131.64 37-3.4641-2v-9l3.4641 2z" fill="#262626" stroke="#262626" stroke-width=".05"/>
   <path id="path6661" d="m131.64 37v-9l5.1962-3v9l-5.1962 3" fill="#444" stroke="#444" stroke-linejoin="round" stroke-width=".05"/>
   <path id="path6663" d="m131.64 28-3.4641-2 5.1962-3 3.4641 2z" fill="#3c3c3c" stroke="#3c3c3c" stroke-linejoin="round" stroke-width=".05"/>
   <path id="path6665" d="m108.25 33.5 3.4641-2v-9l-3.4641 2z" fill="#262626" stroke="#262626" stroke-width=".05"/>
   <path id="path6667" d="m108.25 33.5v-9l-5.1962-3v9l5.1962 3" fill="#444" stroke="#444" stroke-linejoin="round" stroke-width=".05"/>
   <path id="path6669" d="m108.25 24.5 3.4641-2-5.1962-3-3.4641 2z" fill="#3c3c3c" stroke="#3c3c3c" stroke-linejoin="round" stroke-width=".05"/>
   <path id="path6671" d="m102.19 37 3.4641-2v-9l-3.4641 2z" fill="#262626" stroke="#262626" stroke-width=".05"/>
   <path id="path6673" d="m102.19 37v-9l-5.1962-3v9l5.1962 3" fill="#444" stroke="#444" stroke-linejoin="round" stroke-width=".05"/>
   <path id="path6675" d="m102.19 28 3.4641-2-5.1962-3-3.4641 2z" fill="#3c3c3c" stroke="#3c3c3c" stroke-linejoin="round" stroke-width=".05"/>
   <path id="path6677" d="m125.57 33.5-3.4641-2v-9l3.4641 2z" fill="#262626"/>
   <path id="path6679" d="m108.25 33.5 3.4641-2v-9l-3.4641 2z" fill="#262626"/>
   <path id="path6681" d="m96.995 40 1.732 1h1.7321v-1l-1.732-1-1.732 1" fill="#a2a2a2"/>
   <path id="path6683" d="m101.32 40.5v1h-1.732l4.3301 2.5h6.9282v-2h-6.9282z" fill="#a2a2a2"/>
   <path id="path6685" d="m103.06 36.5 2.5981 1.5h1.732v-1l-2.5981-1.5-1.732 1" fill="#a2a2a2"/>
   <path id="path6687" d="m108.25 37.5v1h-1.732l3.4641 2 1.732-1z" fill="#a2a2a2"/>
   <path id="path6689" d="m136.83 40-1.732 1h-1.732v-1l1.732-1 1.732 1" fill="#a2a2a2"/>
   <path id="path6691" d="m132.5 40.5v1h1.732l-4.3301 2.5h-6.9282v-2h6.9282z" fill="#a2a2a2"/>
   <path id="path6693" d="m130.77 36.5-3.1219 1.8024h-2.0813v-1.2016l3.1219-1.8024 2.0813 1.2016" fill="#a2a2a2"/>
   <path id="path6695" d="m96.129 40.5 3.4641-2v-9l-3.4641 2z" fill="#262626" stroke="#262626" stroke-width=".05"/>
   <path id="path6697" d="m96.129 40.5v-9l-5.1962-3v9l5.1962 3" fill="#444" stroke="#444" stroke-linejoin="round" stroke-width=".05"/>
   <path id="path6699" d="m96.129 31.5 3.4641-2-5.1962-3-3.4641 2z" fill="#3c3c3c" stroke="#3c3c3c" stroke-linejoin="round" stroke-width=".05"/>
   <path id="path6701" d="m137.7 40.5-3.4641-2v-9l3.4641 2z" fill="#262626" stroke="#262626" stroke-width=".05"/>
   <path id="path6703" d="m137.7 40.5v-9l5.1962-3v9l-5.1962 3" fill="#444" stroke="#444" stroke-linejoin="round" stroke-width=".05"/>
   <path id="path6705" d="m137.7 31.5-3.4641-2 5.1962-3 3.4641 2z" fill="#3c3c3c" stroke="#3c3c3c" stroke-linejoin="round" stroke-width=".05"/>
   <path id="path6707" d="m85.737 37.5v2l31.177 18v-2l-31.177-18" fill="#c9c9c9"/>
   <path id="path6709" d="m116.91 57.5v-2l31.177-18v2l-31.177 18" fill="#999"/>
   <g id="g6735" transform="matrix(1.3745,0,0,1.5849,-63.501,-63.79)">
    <g id="g6717" transform="matrix(1.2016,0,0,1.2016,63.588,-72.154)">
     <ellipse id="ellipse6711" cx="56.412" cy="115.7" rx="9.173" ry="4.6053" fill="#808080" filter="url(#filter719603)" opacity=".6"/>
     <path id="path6713" d="m47.26 111.45v3.6256c0.1717 2.4766 4.2162 4.4409 9.1521 4.4451 5.0662-5e-5 9.1731-2.062 9.1728-4.6055-2.67e-4 -0.0172-9.21e-4 -0.0344-0.0014-0.0516h0.02238v-3.3617c-0.01547 2.5377-4.1173 3.3993-9.1721 3.3996-5.0661 1e-5 -9.173-0.8702-9.1731-3.4136 0.0014-0.0126 0.0018-0.0252 0.0028-0.0379z" fill="url(#linearGradient6941)"/>
     <ellipse id="ellipse6715" cx="56.412" cy="111.49" rx="9.173" ry="4.6053" fill="#5229ef"/>
    </g>
    <g id="g6725" transform="matrix(1.2016,0,0,1.2016,63.588,-65.16)">
     <ellipse id="ellipse6719" cx="56.412" cy="104.07" rx="9.173" ry="4.6053" fill="#3e3e3e" filter="url(#filter719603)" opacity=".6"/>
     <path id="path6721" d="m47.26 100.45v3.6256c0.1717 2.4766 4.2162 4.4409 9.1521 4.4451 5.0662-5e-5 9.1731-2.062 9.1728-4.6055-2.67e-4 -0.0172-9.21e-4 -0.0344-0.0014-0.0516h0.02238v-3.3617c-0.01547 2.5377-4.1173 3.3993-9.1721 3.3996-5.0661 1e-5 -9.173-0.8702-9.1731-3.4136 0.0014-0.0126 0.0018-0.0252 0.0028-0.0379z" fill="url(#linearGradient6943)"/>
     <ellipse id="ellipse6723" cx="56.412" cy="100.49" rx="9.173" ry="4.6053" fill="#8435f2"/>
    </g>
    <g id="g6733" transform="matrix(1.2016,0,0,1.2016,63.588,-58.801)">
     <ellipse id="ellipse6727" cx="56.412" cy="93.284" rx="9.173" ry="4.6053" fill="#3e3e3e" filter="url(#filter719603)" opacity=".6"/>
     <path id="path6729" d="m47.26 89.712v3.6257c0.1717 2.4766 4.2162 4.4409 9.1521 4.4451 5.0662-5e-5 9.1731-2.062 9.1728-4.6055-2.67e-4 -0.01722-9.21e-4 -0.03445-0.0014-0.05164h0.02238v-3.3617c-0.01547 2.5377-4.1173 3.3993-9.1721 3.3996-5.0661 9e-6 -9.173-0.8702-9.1731-3.4136 0.0014-0.01262 0.0018-0.02524 0.0028-0.03786z" fill="url(#linearGradient6945)"/>
     <ellipse id="ellipse6731" cx="56.412" cy="89.754" rx="9.173" ry="4.6053" fill="#db45fc"/>
    </g>
   </g>
  </g>
  <g id="g6957" transform="matrix(.97961 0 0 .97961 -23.333 -121.19)" font-family="sans-serif" font-size="12.328px" stroke-width=".30821">
   <text id="text6951" x="64.151436" y="120.65505" fill="url(#linearGradient6973)" style="line-height:1.25" xml:space="preserve"><tspan id="tspan6949" x="64.151436" y="120.65505" fill="url(#linearGradient6973)" font-family="Raleway" font-weight="300" stroke-width=".30821"><tspan id="tspan6947" fill="url(#linearGradient6973)" font-family="Raleway" font-weight="500" stroke-width=".30821">DB</tspan></tspan></text>
   <text id="text6955" x="30.842072" y="120.53178" fill="#333333" style="line-height:1.25" xml:space="preserve"><tspan id="tspan6953" x="30.842072" y="120.53178" fill="#333333" font-family="Raleway" font-weight="300" stroke-width=".30821">Racks</tspan></text>
  </g>
 </g>
</svg>
